REM DIRINDEX 1\6,1\2\7,1\2\8,1\2\9,1\3\10,1\3\11,1\4\12,1\4\13,1\4\14,1\5\15,1\5\16,1\5\17
REM DIRNAME folder01,folder02,folder03,folder04,folder05,folder06,folder07,folder08,folder09,folder10,folder11,folder12,folder13,folder14,folder15,folder16,folder17
TITLE ""
FILE "3Q_t2_0844-0859.mp3" MP3
  TRACK 01 AUDIO
    TITLE "7:cjc041_5951"
    INDEX 01 00:00:00
  TRACK 02 AUDIO
    TITLE "0:"
    INDEX 01 00:01:11
  TRACK 03 AUDIO
    TITLE "8:cjc041_5952"
    INDEX 01 00:01:68
  TRACK 04 AUDIO
    TITLE "0:"
    INDEX 01 00:03:17
  TRACK 05 AUDIO
    TITLE "9:cjc041_5953"
    INDEX 01 00:03:72
  TRACK 06 AUDIO
    TITLE "0:"
    INDEX 01 00:05:14
  TRACK 07 AUDIO
    TITLE "7:cjc041_5954"
    INDEX 01 00:06:73
  TRACK 08 AUDIO
    TITLE "0:"
    INDEX 01 00:08:32
  TRACK 09 AUDIO
    TITLE "8:cjc041_5955"
    INDEX 01 00:09:10
  TRACK 10 AUDIO
    TITLE "0:"
    INDEX 01 00:10:41
  TRACK 11 AUDIO
    TITLE "9:cjc041_5956"
    INDEX 01 00:11:19
  TRACK 12 AUDIO
    TITLE "0:"
    INDEX 01 00:12:54
  TRACK 13 AUDIO
    TITLE "7:cjc041_5957"
    INDEX 01 00:14:33
  TRACK 14 AUDIO
    TITLE "0:"
    INDEX 01 00:15:48
  TRACK 15 AUDIO
    TITLE "8:cjc041_5958"
    INDEX 01 00:16:24
  TRACK 16 AUDIO
    TITLE "0:"
    INDEX 01 00:17:47
  TRACK 17 AUDIO
    TITLE "9:cjc041_5959"
    INDEX 01 00:18:29
  TRACK 18 AUDIO
    TITLE "0:"
    INDEX 01 00:19:44
  TRACK 19 AUDIO
    TITLE "7:cjc041_5960"
    INDEX 01 00:21:25
  TRACK 20 AUDIO
    TITLE "0:"
    INDEX 01 00:22:42
  TRACK 21 AUDIO
    TITLE "8:cjc041_5961"
    INDEX 01 00:23:24
  TRACK 22 AUDIO
    TITLE "0:"
    INDEX 01 00:24:27
  TRACK 23 AUDIO
    TITLE "9:cjc041_5962"
    INDEX 01 00:25:07
  TRACK 24 AUDIO
    TITLE "0:"
    INDEX 01 00:26:24
  TRACK 25 AUDIO
    TITLE "7:cjc041_5963"
    INDEX 01 00:28:04
  TRACK 26 AUDIO
    TITLE "0:"
    INDEX 01 00:29:27
  TRACK 27 AUDIO
    TITLE "8:cjc041_5964"
    INDEX 01 00:30:03
  TRACK 28 AUDIO
    TITLE "0:"
    INDEX 01 00:31:20
  TRACK 29 AUDIO
    TITLE "9:cjc041_5965"
    INDEX 01 00:31:67
  TRACK 30 AUDIO
    TITLE "0:"
    INDEX 01 00:33:17
  TRACK 31 AUDIO
    TITLE "7:cjc041_5966"
    INDEX 01 00:34:71
  TRACK 32 AUDIO
    TITLE "0:"
    INDEX 01 00:36:17
  TRACK 33 AUDIO
    TITLE "8:cjc041_5967"
    INDEX 01 00:36:70
  TRACK 34 AUDIO
    TITLE "0:"
    INDEX 01 00:38:20
  TRACK 35 AUDIO
    TITLE "9:cjc041_5968"
    INDEX 01 00:38:73
  TRACK 36 AUDIO
    TITLE "0:"
    INDEX 01 00:40:21
  TRACK 37 AUDIO
    TITLE "7:cjc041_5969"
    INDEX 01 00:42:00
  TRACK 38 AUDIO
    TITLE "0:"
    INDEX 01 00:43:21
  TRACK 39 AUDIO
    TITLE "8:cjc041_5970"
    INDEX 01 00:43:74
  TRACK 40 AUDIO
    TITLE "0:"
    INDEX 01 00:46:47
  TRACK 41 AUDIO
    TITLE "9:cjc041_5971"
    INDEX 01 00:47:25
  TRACK 42 AUDIO
    TITLE "0:"
    INDEX 01 00:48:44
  TRACK 43 AUDIO
    TITLE "7:cjc041_5972"
    INDEX 01 00:50:17
  TRACK 44 AUDIO
    TITLE "0:"
    INDEX 01 00:51:38
  TRACK 45 AUDIO
    TITLE "8:cjc041_5973"
    INDEX 01 00:52:14
  TRACK 46 AUDIO
    TITLE "0:"
    INDEX 01 00:55:59
  TRACK 47 AUDIO
    TITLE "9:cjc041_5974"
    INDEX 01 00:56:35
  TRACK 48 AUDIO
    TITLE "0:"
    INDEX 01 00:57:56
  TRACK 49 AUDIO
    TITLE "7:cjc041_5975"
    INDEX 01 00:59:38
  TRACK 50 AUDIO
    TITLE "0:"
    INDEX 01 01:00:53
  TRACK 51 AUDIO
    TITLE "8:cjc041_5976"
    INDEX 01 01:01:38
  TRACK 52 AUDIO
    TITLE "0:"
    INDEX 01 01:02:54
  TRACK 53 AUDIO
    TITLE "9:cjc041_5977"
    INDEX 01 01:03:31
  TRACK 54 AUDIO
    TITLE "0:"
    INDEX 01 01:04:50
  TRACK 55 AUDIO
    TITLE "7:cjc041_5978"
    INDEX 01 01:06:34
  TRACK 56 AUDIO
    TITLE "0:"
    INDEX 01 01:07:53
  TRACK 57 AUDIO
    TITLE "8:cjc041_5979"
    INDEX 01 01:08:35
  TRACK 58 AUDIO
    TITLE "0:"
    INDEX 01 01:09:36
  TRACK 59 AUDIO
    TITLE "9:cjc041_5980"
    INDEX 01 01:10:14
  TRACK 60 AUDIO
    TITLE "0:"
    INDEX 01 01:11:39
  TRACK 61 AUDIO
    TITLE "7:cjc041_5981"
    INDEX 01 01:13:18
  TRACK 62 AUDIO
    TITLE "0:"
    INDEX 01 01:14:33
  TRACK 63 AUDIO
    TITLE "8:cjc041_5982"
    INDEX 01 01:15:09
  TRACK 64 AUDIO
    TITLE "0:"
    INDEX 01 01:16:12
  TRACK 65 AUDIO
    TITLE "9:cjc041_5983"
    INDEX 01 01:16:61
  TRACK 66 AUDIO
    TITLE "0:"
    INDEX 01 01:18:00
  TRACK 67 AUDIO
    TITLE "7:cjc041_5984"
    INDEX 01 01:19:58
  TRACK 68 AUDIO
    TITLE "0:"
    INDEX 01 01:20:65
  TRACK 69 AUDIO
    TITLE "8:cjc041_5985"
    INDEX 01 01:21:45
  TRACK 70 AUDIO
    TITLE "0:"
    INDEX 01 01:22:50
  TRACK 71 AUDIO
    TITLE "9:cjc041_5986"
    INDEX 01 01:23:34
  TRACK 72 AUDIO
    TITLE "0:"
    INDEX 01 01:24:41
  TRACK 73 AUDIO
    TITLE "7:cjc041_5987"
    INDEX 01 01:26:27
  TRACK 74 AUDIO
    TITLE "0:"
    INDEX 01 01:27:50
  TRACK 75 AUDIO
    TITLE "8:cjc041_5988"
    INDEX 01 01:28:20
  TRACK 76 AUDIO
    TITLE "0:"
    INDEX 01 01:30:18
  TRACK 77 AUDIO
    TITLE "9:cjc041_5989"
    INDEX 01 01:30:73
  TRACK 78 AUDIO
    TITLE "0:"
    INDEX 01 01:32:17
  TRACK 79 AUDIO
    TITLE "7:cjc041_5990"
    INDEX 01 01:34:03
  TRACK 80 AUDIO
    TITLE "0:"
    INDEX 01 01:35:29
  TRACK 81 AUDIO
    TITLE "8:cjc041_5991"
    INDEX 01 01:36:07
  TRACK 82 AUDIO
    TITLE "0:"
    INDEX 01 01:37:50
  TRACK 83 AUDIO
    TITLE "9:cjc041_5992"
    INDEX 01 01:38:30
  TRACK 84 AUDIO
    TITLE "0:"
    INDEX 01 01:39:59
  TRACK 85 AUDIO
    TITLE "7:cjc041_5993"
    INDEX 01 01:41:42
  TRACK 86 AUDIO
    TITLE "0:"
    INDEX 01 01:42:59
  TRACK 87 AUDIO
    TITLE "8:cjc041_5994"
    INDEX 01 01:43:33
  TRACK 88 AUDIO
    TITLE "0:"
    INDEX 01 01:46:39
  TRACK 89 AUDIO
    TITLE "9:cjc041_5995"
    INDEX 01 01:47:19
  TRACK 90 AUDIO
    TITLE "0:"
    INDEX 01 01:48:36
  TRACK 91 AUDIO
    TITLE "7:cjc041_5996"
    INDEX 01 01:50:13
  TRACK 92 AUDIO
    TITLE "0:"
    INDEX 01 01:51:17
  TRACK 93 AUDIO
    TITLE "8:cjc041_5997"
    INDEX 01 01:52:00
  TRACK 94 AUDIO
    TITLE "0:"
    INDEX 01 01:53:27
  TRACK 95 AUDIO
    TITLE "9:cjc041_5998"
    INDEX 01 01:54:07
  TRACK 96 AUDIO
    TITLE "0:"
    INDEX 01 01:55:16
